<svg xmlns="http://www.w3.org/2000/svg" version="1.1" xmlns:xlink="http://www.w3.org/1999/xlink" xmlns:svgjs="http://svgjs.com/svgjs" width="1600" height="900" preserveAspectRatio="none" viewBox="0 0 1600 900"><g mask="url(&quot;#SvgjsMask1080&quot;)" fill="none"><rect width="1600" height="900" x="0" y="0" fill="url(#SvgjsLinearGradient1081)"></rect><path d="M32 900L932 0L1148 0L248 900z" fill="url(#SvgjsLinearGradient1082)"></path><path d="M620 900L1520 0L2084 0L1184 900z" fill="url(#SvgjsLinearGradient1082)"></path><path d="M1517 900L617 0L2 0L902 900z" fill="url(#SvgjsLinearGradient1083)"></path><path d="M1021 900L121 0L-191 0L709 900z" fill="url(#SvgjsLinearGradient1083)"></path><path d="M1106.3894707026736 900L1600 406.3894707026736L1600 900z" fill="url(#SvgjsLinearGradient1082)"></path><path d="M0 900L493.6105292973264 900L 0 406.3894707026736z" fill="url(#SvgjsLinearGradient1083)"></path></g><defs><mask id="SvgjsMask1080"><rect width="1600" height="900" fill="#ffffff"></rect></mask><linearGradient x1="10.94%" y1="-19.44%" x2="89.06%" y2="119.44%" gradientUnits="userSpaceOnUse" id="SvgjsLinearGradient1081"><stop stop-color="#0e2a47" offset="0"></stop><stop stop-color="rgba(163, 13, 75, 1)" offset="1"></stop></linearGradient><linearGradient x1="0%" y1="100%" x2="100%" y2="0%" id="SvgjsLinearGradient1082"><stop stop-color="rgba(15, 70, 185, 0.2)" offset="0"></stop><stop stop-opacity="0" stop-color="rgba(15, 70, 185, 0.2)" offset="0.66"></stop></linearGradient><linearGradient x1="100%" y1="100%" x2="0%" y2="0%" id="SvgjsLinearGradient1083"><stop stop-color="rgba(15, 70, 185, 0.2)" offset="0"></stop><stop stop-opacity="0" stop-color="rgba(15, 70, 185, 0.2)" offset="0.66"></stop></linearGradient></defs></svg>